<svg xmlns="http://www.w3.org/2000/svg" class="rich-terminal" viewBox="0 0 994 513.6"><style>@font-face{font-family:&quot;Fira Code&quot;;src:local(&quot;FiraCode-Regular&quot;),url(https://cdnjs.cloudflare.com/ajax/libs/firacode/6.2.0/woff2/FiraCode-Regular.woff2) format(&quot;woff2&quot;),url(https://cdnjs.cloudflare.com/ajax/libs/firacode/6.2.0/woff/FiraCode-Regular.woff) format(&quot;woff&quot;);font-style:normal;font-weight:400}@font-face{font-family:&quot;Fira Code&quot;;src:local(&quot;FiraCode-Bold&quot;),url(https://cdnjs.cloudflare.com/ajax/libs/firacode/6.2.0/woff2/FiraCode-Bold.woff2) format(&quot;woff2&quot;),url(https://cdnjs.cloudflare.com/ajax/libs/firacode/6.2.0/woff/FiraCode-Bold.woff) format(&quot;woff&quot;);font-style:bold;font-weight:700}.terminal-1823446969-matrix{font-family:Fira Code,monospace;font-size:20px;line-height:24.4px;font-variant-east-asian:full-width}.terminal-1823446969-title{font-size:18px;font-weight:700;font-family:arial}.terminal-1823446969-r1{fill:#c5c8c6}.terminal-1823446969-r2{fill:#68a0b3;font-weight:700}.terminal-1823446969-r3{fill:#f8f8f2}.terminal-1823446969-r4{fill:#ff4689}</style><defs><clipPath id="terminal-1823446969-clip-terminal"><rect width="975" height="462.6" x="0" y="0"/></clipPath><clipPath id="terminal-1823446969-line-0"><rect width="976" height="24.65" x="0" y="1.5"/></clipPath><clipPath id="terminal-1823446969-line-1"><rect width="976" height="24.65" x="0" y="25.9"/></clipPath><clipPath id="terminal-1823446969-line-2"><rect width="976" height="24.65" x="0" y="50.3"/></clipPath><clipPath id="terminal-1823446969-line-3"><rect width="976" height="24.65" x="0" y="74.7"/></clipPath><clipPath id="terminal-1823446969-line-4"><rect width="976" height="24.65" x="0" y="99.1"/></clipPath><clipPath id="terminal-1823446969-line-5"><rect width="976" height="24.65" x="0" y="123.5"/></clipPath><clipPath id="terminal-1823446969-line-6"><rect width="976" height="24.65" x="0" y="147.9"/></clipPath><clipPath id="terminal-1823446969-line-7"><rect width="976" height="24.65" x="0" y="172.3"/></clipPath><clipPath id="terminal-1823446969-line-8"><rect width="976" height="24.65" x="0" y="196.7"/></clipPath><clipPath id="terminal-1823446969-line-9"><rect width="976" height="24.65" x="0" y="221.1"/></clipPath><clipPath id="terminal-1823446969-line-10"><rect width="976" height="24.65" x="0" y="245.5"/></clipPath><clipPath id="terminal-1823446969-line-11"><rect width="976" height="24.65" x="0" y="269.9"/></clipPath><clipPath id="terminal-1823446969-line-12"><rect width="976" height="24.65" x="0" y="294.3"/></clipPath><clipPath id="terminal-1823446969-line-13"><rect width="976" height="24.65" x="0" y="318.7"/></clipPath><clipPath id="terminal-1823446969-line-14"><rect width="976" height="24.65" x="0" y="343.1"/></clipPath><clipPath id="terminal-1823446969-line-15"><rect width="976" height="24.65" x="0" y="367.5"/></clipPath><clipPath id="terminal-1823446969-line-16"><rect width="976" height="24.65" x="0" y="391.9"/></clipPath><clipPath id="terminal-1823446969-line-17"><rect width="976" height="24.65" x="0" y="416.3"/></clipPath></defs><rect width="992" height="511.6" x="1" y="1" fill="#292929" stroke="rgba(255,255,255,0.35)" stroke-width="1" rx="8"/><text x="496" y="27" fill="#c5c8c6" class="terminal-1823446969-title" text-anchor="middle">wake print state-changes</text><g transform="translate(26,22)"><circle cx="0" cy="0" r="7" fill="#ff5f57"/><circle cx="22" cy="0" r="7" fill="#febc2e"/><circle cx="44" cy="0" r="7" fill="#28c840"/></g><g clip-path="url(#terminal-1823446969-clip-terminal)" transform="translate(9, 41)"><rect width="122" height="24.65" x="73.2" y="74.7" fill="#272822" shape-rendering="crispEdges"/><rect width="12.2" height="24.65" x="195.2" y="74.7" fill="#272822" shape-rendering="crispEdges"/><rect width="97.6" height="24.65" x="207.4" y="74.7" fill="#272822" shape-rendering="crispEdges"/><rect width="12.2" height="24.65" x="305" y="74.7" fill="#272822" shape-rendering="crispEdges"/><rect width="12.2" height="24.65" x="317.2" y="74.7" fill="#272822" shape-rendering="crispEdges"/><rect width="12.2" height="24.65" x="329.4" y="74.7" fill="#272822" shape-rendering="crispEdges"/><rect width="12.2" height="24.65" x="341.6" y="74.7" fill="#272822" shape-rendering="crispEdges"/><rect width="12.2" height="24.65" x="353.8" y="74.7" fill="#272822" shape-rendering="crispEdges"/><rect width="73.2" height="24.65" x="366" y="74.7" fill="#272822" shape-rendering="crispEdges"/><rect width="48.8" height="24.65" x="73.2" y="147.9" fill="#272822" shape-rendering="crispEdges"/><rect width="12.2" height="24.65" x="122" y="147.9" fill="#272822" shape-rendering="crispEdges"/><rect width="36.6" height="24.65" x="134.2" y="147.9" fill="#272822" shape-rendering="crispEdges"/><rect width="12.2" height="24.65" x="170.8" y="147.9" fill="#272822" shape-rendering="crispEdges"/><rect width="12.2" height="24.65" x="183" y="147.9" fill="#272822" shape-rendering="crispEdges"/><rect width="12.2" height="24.65" x="195.2" y="147.9" fill="#272822" shape-rendering="crispEdges"/><rect width="12.2" height="24.65" x="207.4" y="147.9" fill="#272822" shape-rendering="crispEdges"/><rect width="24.4" height="24.65" x="219.6" y="147.9" fill="#272822" shape-rendering="crispEdges"/><rect width="12.2" height="24.65" x="244" y="147.9" fill="#272822" shape-rendering="crispEdges"/><rect width="12.2" height="24.65" x="256.2" y="147.9" fill="#272822" shape-rendering="crispEdges"/><rect width="73.2" height="24.65" x="268.4" y="147.9" fill="#272822" shape-rendering="crispEdges"/><rect width="12.2" height="24.65" x="341.6" y="147.9" fill="#272822" shape-rendering="crispEdges"/><rect width="12.2" height="24.65" x="353.8" y="147.9" fill="#272822" shape-rendering="crispEdges"/><rect width="12.2" height="24.65" x="366" y="147.9" fill="#272822" shape-rendering="crispEdges"/><rect width="12.2" height="24.65" x="378.2" y="147.9" fill="#272822" shape-rendering="crispEdges"/><rect width="12.2" height="24.65" x="390.4" y="147.9" fill="#272822" shape-rendering="crispEdges"/><rect width="12.2" height="24.65" x="402.6" y="147.9" fill="#272822" shape-rendering="crispEdges"/><rect width="12.2" height="24.65" x="414.8" y="147.9" fill="#272822" shape-rendering="crispEdges"/><rect width="12.2" height="24.65" x="427" y="147.9" fill="#272822" shape-rendering="crispEdges"/><rect width="12.2" height="24.65" x="439.2" y="147.9" fill="#272822" shape-rendering="crispEdges"/><rect width="12.2" height="24.65" x="451.4" y="147.9" fill="#272822" shape-rendering="crispEdges"/><rect width="12.2" height="24.65" x="463.6" y="147.9" fill="#272822" shape-rendering="crispEdges"/><rect width="12.2" height="24.65" x="475.8" y="147.9" fill="#272822" shape-rendering="crispEdges"/><rect width="12.2" height="24.65" x="488" y="147.9" fill="#272822" shape-rendering="crispEdges"/><rect width="48.8" height="24.65" x="73.2" y="196.7" fill="#272822" shape-rendering="crispEdges"/><rect width="12.2" height="24.65" x="122" y="196.7" fill="#272822" shape-rendering="crispEdges"/><rect width="36.6" height="24.65" x="134.2" y="196.7" fill="#272822" shape-rendering="crispEdges"/><rect width="12.2" height="24.65" x="170.8" y="196.7" fill="#272822" shape-rendering="crispEdges"/><rect width="12.2" height="24.65" x="183" y="196.7" fill="#272822" shape-rendering="crispEdges"/><rect width="12.2" height="24.65" x="195.2" y="196.7" fill="#272822" shape-rendering="crispEdges"/><rect width="12.2" height="24.65" x="207.4" y="196.7" fill="#272822" shape-rendering="crispEdges"/><rect width="24.4" height="24.65" x="219.6" y="196.7" fill="#272822" shape-rendering="crispEdges"/><rect width="12.2" height="24.65" x="244" y="196.7" fill="#272822" shape-rendering="crispEdges"/><rect width="12.2" height="24.65" x="256.2" y="196.7" fill="#272822" shape-rendering="crispEdges"/><rect width="73.2" height="24.65" x="268.4" y="196.7" fill="#272822" shape-rendering="crispEdges"/><rect width="12.2" height="24.65" x="341.6" y="196.7" fill="#272822" shape-rendering="crispEdges"/><rect width="12.2" height="24.65" x="353.8" y="196.7" fill="#272822" shape-rendering="crispEdges"/><rect width="12.2" height="24.65" x="366" y="196.7" fill="#272822" shape-rendering="crispEdges"/><rect width="12.2" height="24.65" x="378.2" y="196.7" fill="#272822" shape-rendering="crispEdges"/><rect width="12.2" height="24.65" x="390.4" y="196.7" fill="#272822" shape-rendering="crispEdges"/><rect width="12.2" height="24.65" x="402.6" y="196.7" fill="#272822" shape-rendering="crispEdges"/><rect width="12.2" height="24.65" x="414.8" y="196.7" fill="#272822" shape-rendering="crispEdges"/><rect width="12.2" height="24.65" x="427" y="196.7" fill="#272822" shape-rendering="crispEdges"/><rect width="12.2" height="24.65" x="439.2" y="196.7" fill="#272822" shape-rendering="crispEdges"/><rect width="12.2" height="24.65" x="451.4" y="196.7" fill="#272822" shape-rendering="crispEdges"/><rect width="12.2" height="24.65" x="463.6" y="196.7" fill="#272822" shape-rendering="crispEdges"/><rect width="12.2" height="24.65" x="475.8" y="196.7" fill="#272822" shape-rendering="crispEdges"/><rect width="12.2" height="24.65" x="488" y="196.7" fill="#272822" shape-rendering="crispEdges"/><rect width="48.8" height="24.65" x="73.2" y="245.5" fill="#272822" shape-rendering="crispEdges"/><rect width="12.2" height="24.65" x="122" y="245.5" fill="#272822" shape-rendering="crispEdges"/><rect width="36.6" height="24.65" x="134.2" y="245.5" fill="#272822" shape-rendering="crispEdges"/><rect width="12.2" height="24.65" x="170.8" y="245.5" fill="#272822" shape-rendering="crispEdges"/><rect width="12.2" height="24.65" x="183" y="245.5" fill="#272822" shape-rendering="crispEdges"/><rect width="12.2" height="24.65" x="195.2" y="245.5" fill="#272822" shape-rendering="crispEdges"/><rect width="12.2" height="24.65" x="207.4" y="245.5" fill="#272822" shape-rendering="crispEdges"/><rect width="97.6" height="24.65" x="219.6" y="245.5" fill="#272822" shape-rendering="crispEdges"/><rect width="12.2" height="24.65" x="317.2" y="245.5" fill="#272822" shape-rendering="crispEdges"/><rect width="12.2" height="24.65" x="329.4" y="245.5" fill="#272822" shape-rendering="crispEdges"/><rect width="12.2" height="24.65" x="341.6" y="245.5" fill="#272822" shape-rendering="crispEdges"/><rect width="12.2" height="24.65" x="353.8" y="245.5" fill="#272822" shape-rendering="crispEdges"/><rect width="12.2" height="24.65" x="366" y="245.5" fill="#272822" shape-rendering="crispEdges"/><rect width="12.2" height="24.65" x="378.2" y="245.5" fill="#272822" shape-rendering="crispEdges"/><rect width="12.2" height="24.65" x="390.4" y="245.5" fill="#272822" shape-rendering="crispEdges"/><rect width="12.2" height="24.65" x="402.6" y="245.5" fill="#272822" shape-rendering="crispEdges"/><rect width="24.4" height="24.65" x="414.8" y="245.5" fill="#272822" shape-rendering="crispEdges"/><rect width="12.2" height="24.65" x="439.2" y="245.5" fill="#272822" shape-rendering="crispEdges"/><rect width="12.2" height="24.65" x="451.4" y="245.5" fill="#272822" shape-rendering="crispEdges"/><rect width="12.2" height="24.65" x="463.6" y="245.5" fill="#272822" shape-rendering="crispEdges"/><rect width="12.2" height="24.65" x="475.8" y="245.5" fill="#272822" shape-rendering="crispEdges"/><rect width="12.2" height="24.65" x="488" y="245.5" fill="#272822" shape-rendering="crispEdges"/><rect width="24.4" height="24.65" x="500.2" y="245.5" fill="#272822" shape-rendering="crispEdges"/><rect width="12.2" height="24.65" x="524.6" y="245.5" fill="#272822" shape-rendering="crispEdges"/><rect width="97.6" height="24.65" x="73.2" y="318.7" fill="#272822" shape-rendering="crispEdges"/><rect width="12.2" height="24.65" x="170.8" y="318.7" fill="#272822" shape-rendering="crispEdges"/><rect width="207.4" height="24.65" x="183" y="318.7" fill="#272822" shape-rendering="crispEdges"/><rect width="12.2" height="24.65" x="390.4" y="318.7" fill="#272822" shape-rendering="crispEdges"/><rect width="12.2" height="24.65" x="402.6" y="318.7" fill="#272822" shape-rendering="crispEdges"/><rect width="97.6" height="24.65" x="73.2" y="367.5" fill="#272822" shape-rendering="crispEdges"/><rect width="12.2" height="24.65" x="170.8" y="367.5" fill="#272822" shape-rendering="crispEdges"/><rect width="207.4" height="24.65" x="183" y="367.5" fill="#272822" shape-rendering="crispEdges"/><rect width="12.2" height="24.65" x="390.4" y="367.5" fill="#272822" shape-rendering="crispEdges"/><rect width="12.2" height="24.65" x="402.6" y="367.5" fill="#272822" shape-rendering="crispEdges"/><rect width="158.6" height="24.65" x="73.2" y="416.3" fill="#272822" shape-rendering="crispEdges"/><rect width="12.2" height="24.65" x="231.8" y="416.3" fill="#272822" shape-rendering="crispEdges"/><rect width="73.2" height="24.65" x="244" y="416.3" fill="#272822" shape-rendering="crispEdges"/><rect width="12.2" height="24.65" x="317.2" y="416.3" fill="#272822" shape-rendering="crispEdges"/><rect width="12.2" height="24.65" x="329.4" y="416.3" fill="#272822" shape-rendering="crispEdges"/><rect width="97.6" height="24.65" x="341.6" y="416.3" fill="#272822" shape-rendering="crispEdges"/><rect width="12.2" height="24.65" x="439.2" y="416.3" fill="#272822" shape-rendering="crispEdges"/><rect width="12.2" height="24.65" x="451.4" y="416.3" fill="#272822" shape-rendering="crispEdges"/><rect width="12.2" height="24.65" x="463.6" y="416.3" fill="#272822" shape-rendering="crispEdges"/><rect width="12.2" height="24.65" x="475.8" y="416.3" fill="#272822" shape-rendering="crispEdges"/><rect width="48.8" height="24.65" x="488" y="416.3" fill="#272822" shape-rendering="crispEdges"/><g class="terminal-1823446969-matrix"><text x="0" y="20" class="terminal-1823446969-r1" clip-path="url(#terminal-1823446969-line-0)" textLength="97.6">Function</text><text x="109.8" y="20" class="terminal-1823446969-r2" clip-path="url(#terminal-1823446969-line-0)" textLength="195.2">PoolManager.take</text><text x="305" y="20" class="terminal-1823446969-r2" clip-path="url(#terminal-1823446969-line-0)" textLength="12.2">(</text><text x="317.2" y="20" class="terminal-1823446969-r2" clip-path="url(#terminal-1823446969-line-0)" textLength="292.8">Currency,address,uint256</text><text x="610" y="20" class="terminal-1823446969-r2" clip-path="url(#terminal-1823446969-line-0)" textLength="12.2">)</text><text x="622.2" y="20" class="terminal-1823446969-r1" clip-path="url(#terminal-1823446969-line-0)" textLength="195.2">modifies state:</text><text x="0" y="44.4" class="terminal-1823446969-r1" clip-path="url(#terminal-1823446969-line-1)" textLength="195.2">- in function</text><text x="195.2" y="44.4" class="terminal-1823446969-r2" clip-path="url(#terminal-1823446969-line-1)" textLength="512.4">PoolManager.take(Currency,address,uint256)</text><text x="707.6" y="44.4" class="terminal-1823446969-r1" clip-path="url(#terminal-1823446969-line-1)" textLength="12.2">:</text><text x="0" y="68.8" class="terminal-1823446969-r1" clip-path="url(#terminal-1823446969-line-2)" textLength="73.2">-</text><text x="73.2" y="68.8" class="terminal-1823446969-r2" clip-path="url(#terminal-1823446969-line-2)" textLength="219.6">MODIFIES STATE VAR</text><text x="73.2" y="93.2" class="terminal-1823446969-r3" clip-path="url(#terminal-1823446969-line-3)" textLength="122">reservesOf</text><text x="195.2" y="93.2" class="terminal-1823446969-r3" clip-path="url(#terminal-1823446969-line-3)" textLength="12.2">[</text><text x="207.4" y="93.2" class="terminal-1823446969-r3" clip-path="url(#terminal-1823446969-line-3)" textLength="97.6">currency</text><text x="305" y="93.2" class="terminal-1823446969-r3" clip-path="url(#terminal-1823446969-line-3)" textLength="12.2">]</text><text x="329.4" y="93.2" class="terminal-1823446969-r4" clip-path="url(#terminal-1823446969-line-3)" textLength="12.2">-</text><text x="341.6" y="93.2" class="terminal-1823446969-r4" clip-path="url(#terminal-1823446969-line-3)" textLength="12.2">=</text><text x="366" y="93.2" class="terminal-1823446969-r3" clip-path="url(#terminal-1823446969-line-3)" textLength="73.2">amount</text><text x="0" y="117.6" class="terminal-1823446969-r1" clip-path="url(#terminal-1823446969-line-4)" textLength="195.2">- in function</text><text x="195.2" y="117.6" class="terminal-1823446969-r2" clip-path="url(#terminal-1823446969-line-4)" textLength="610">CurrencyLibrary.transfer(Currency,address,uint256)</text><text x="805.2" y="117.6" class="terminal-1823446969-r1" clip-path="url(#terminal-1823446969-line-4)" textLength="12.2">:</text><text x="0" y="142" class="terminal-1823446969-r1" clip-path="url(#terminal-1823446969-line-5)" textLength="73.2">-</text><text x="73.2" y="142" class="terminal-1823446969-r2" clip-path="url(#terminal-1823446969-line-5)" textLength="158.6">PERFORMS CALL</text><text x="73.2" y="166.4" class="terminal-1823446969-r3" clip-path="url(#terminal-1823446969-line-6)" textLength="48.8">call</text><text x="122" y="166.4" class="terminal-1823446969-r3" clip-path="url(#terminal-1823446969-line-6)" textLength="12.2">(</text><text x="134.2" y="166.4" class="terminal-1823446969-r3" clip-path="url(#terminal-1823446969-line-6)" textLength="36.6">gas</text><text x="170.8" y="166.4" class="terminal-1823446969-r3" clip-path="url(#terminal-1823446969-line-6)" textLength="12.2">(</text><text x="183" y="166.4" class="terminal-1823446969-r3" clip-path="url(#terminal-1823446969-line-6)" textLength="12.2">)</text><text x="195.2" y="166.4" class="terminal-1823446969-r3" clip-path="url(#terminal-1823446969-line-6)" textLength="12.2">,</text><text x="219.6" y="166.4" class="terminal-1823446969-r3" clip-path="url(#terminal-1823446969-line-6)" textLength="24.4">to</text><text x="244" y="166.4" class="terminal-1823446969-r3" clip-path="url(#terminal-1823446969-line-6)" textLength="12.2">,</text><text x="268.4" y="166.4" class="terminal-1823446969-r3" clip-path="url(#terminal-1823446969-line-6)" textLength="73.2">amount</text><text x="341.6" y="166.4" class="terminal-1823446969-r3" clip-path="url(#terminal-1823446969-line-6)" textLength="12.2">,</text><text x="366" y="166.4" class="terminal-1823446969-r1" clip-path="url(#terminal-1823446969-line-6)" textLength="12.2">0</text><text x="378.2" y="166.4" class="terminal-1823446969-r3" clip-path="url(#terminal-1823446969-line-6)" textLength="12.2">,</text><text x="402.6" y="166.4" class="terminal-1823446969-r1" clip-path="url(#terminal-1823446969-line-6)" textLength="12.2">0</text><text x="414.8" y="166.4" class="terminal-1823446969-r3" clip-path="url(#terminal-1823446969-line-6)" textLength="12.2">,</text><text x="439.2" y="166.4" class="terminal-1823446969-r1" clip-path="url(#terminal-1823446969-line-6)" textLength="12.2">0</text><text x="451.4" y="166.4" class="terminal-1823446969-r3" clip-path="url(#terminal-1823446969-line-6)" textLength="12.2">,</text><text x="475.8" y="166.4" class="terminal-1823446969-r1" clip-path="url(#terminal-1823446969-line-6)" textLength="12.2">0</text><text x="488" y="166.4" class="terminal-1823446969-r3" clip-path="url(#terminal-1823446969-line-6)" textLength="12.2">)</text><text x="0" y="190.8" class="terminal-1823446969-r1" clip-path="url(#terminal-1823446969-line-7)" textLength="73.2">-</text><text x="73.2" y="190.8" class="terminal-1823446969-r2" clip-path="url(#terminal-1823446969-line-7)" textLength="134.2">SENDS ETHER</text><text x="73.2" y="215.2" class="terminal-1823446969-r3" clip-path="url(#terminal-1823446969-line-8)" textLength="48.8">call</text><text x="122" y="215.2" class="terminal-1823446969-r3" clip-path="url(#terminal-1823446969-line-8)" textLength="12.2">(</text><text x="134.2" y="215.2" class="terminal-1823446969-r3" clip-path="url(#terminal-1823446969-line-8)" textLength="36.6">gas</text><text x="170.8" y="215.2" class="terminal-1823446969-r3" clip-path="url(#terminal-1823446969-line-8)" textLength="12.2">(</text><text x="183" y="215.2" class="terminal-1823446969-r3" clip-path="url(#terminal-1823446969-line-8)" textLength="12.2">)</text><text x="195.2" y="215.2" class="terminal-1823446969-r3" clip-path="url(#terminal-1823446969-line-8)" textLength="12.2">,</text><text x="219.6" y="215.2" class="terminal-1823446969-r3" clip-path="url(#terminal-1823446969-line-8)" textLength="24.4">to</text><text x="244" y="215.2" class="terminal-1823446969-r3" clip-path="url(#terminal-1823446969-line-8)" textLength="12.2">,</text><text x="268.4" y="215.2" class="terminal-1823446969-r3" clip-path="url(#terminal-1823446969-line-8)" textLength="73.2">amount</text><text x="341.6" y="215.2" class="terminal-1823446969-r3" clip-path="url(#terminal-1823446969-line-8)" textLength="12.2">,</text><text x="366" y="215.2" class="terminal-1823446969-r1" clip-path="url(#terminal-1823446969-line-8)" textLength="12.2">0</text><text x="378.2" y="215.2" class="terminal-1823446969-r3" clip-path="url(#terminal-1823446969-line-8)" textLength="12.2">,</text><text x="402.6" y="215.2" class="terminal-1823446969-r1" clip-path="url(#terminal-1823446969-line-8)" textLength="12.2">0</text><text x="414.8" y="215.2" class="terminal-1823446969-r3" clip-path="url(#terminal-1823446969-line-8)" textLength="12.2">,</text><text x="439.2" y="215.2" class="terminal-1823446969-r1" clip-path="url(#terminal-1823446969-line-8)" textLength="12.2">0</text><text x="451.4" y="215.2" class="terminal-1823446969-r3" clip-path="url(#terminal-1823446969-line-8)" textLength="12.2">,</text><text x="475.8" y="215.2" class="terminal-1823446969-r1" clip-path="url(#terminal-1823446969-line-8)" textLength="12.2">0</text><text x="488" y="215.2" class="terminal-1823446969-r3" clip-path="url(#terminal-1823446969-line-8)" textLength="12.2">)</text><text x="0" y="239.6" class="terminal-1823446969-r1" clip-path="url(#terminal-1823446969-line-9)" textLength="73.2">-</text><text x="73.2" y="239.6" class="terminal-1823446969-r2" clip-path="url(#terminal-1823446969-line-9)" textLength="158.6">PERFORMS CALL</text><text x="73.2" y="264" class="terminal-1823446969-r3" clip-path="url(#terminal-1823446969-line-10)" textLength="48.8">call</text><text x="122" y="264" class="terminal-1823446969-r3" clip-path="url(#terminal-1823446969-line-10)" textLength="12.2">(</text><text x="134.2" y="264" class="terminal-1823446969-r3" clip-path="url(#terminal-1823446969-line-10)" textLength="36.6">gas</text><text x="170.8" y="264" class="terminal-1823446969-r3" clip-path="url(#terminal-1823446969-line-10)" textLength="12.2">(</text><text x="183" y="264" class="terminal-1823446969-r3" clip-path="url(#terminal-1823446969-line-10)" textLength="12.2">)</text><text x="195.2" y="264" class="terminal-1823446969-r3" clip-path="url(#terminal-1823446969-line-10)" textLength="12.2">,</text><text x="219.6" y="264" class="terminal-1823446969-r3" clip-path="url(#terminal-1823446969-line-10)" textLength="97.6">currency</text><text x="317.2" y="264" class="terminal-1823446969-r3" clip-path="url(#terminal-1823446969-line-10)" textLength="12.2">,</text><text x="341.6" y="264" class="terminal-1823446969-r1" clip-path="url(#terminal-1823446969-line-10)" textLength="12.2">0</text><text x="353.8" y="264" class="terminal-1823446969-r3" clip-path="url(#terminal-1823446969-line-10)" textLength="12.2">,</text><text x="378.2" y="264" class="terminal-1823446969-r1" clip-path="url(#terminal-1823446969-line-10)" textLength="12.2">0</text><text x="390.4" y="264" class="terminal-1823446969-r3" clip-path="url(#terminal-1823446969-line-10)" textLength="12.2">,</text><text x="414.8" y="264" class="terminal-1823446969-r1" clip-path="url(#terminal-1823446969-line-10)" textLength="24.4">68</text><text x="439.2" y="264" class="terminal-1823446969-r3" clip-path="url(#terminal-1823446969-line-10)" textLength="12.2">,</text><text x="463.6" y="264" class="terminal-1823446969-r1" clip-path="url(#terminal-1823446969-line-10)" textLength="12.2">0</text><text x="475.8" y="264" class="terminal-1823446969-r3" clip-path="url(#terminal-1823446969-line-10)" textLength="12.2">,</text><text x="500.2" y="264" class="terminal-1823446969-r1" clip-path="url(#terminal-1823446969-line-10)" textLength="24.4">32</text><text x="524.6" y="264" class="terminal-1823446969-r3" clip-path="url(#terminal-1823446969-line-10)" textLength="12.2">)</text><text x="0" y="288.4" class="terminal-1823446969-r1" clip-path="url(#terminal-1823446969-line-11)" textLength="195.2">- in function</text><text x="195.2" y="288.4" class="terminal-1823446969-r2" clip-path="url(#terminal-1823446969-line-11)" textLength="512.4">PoolManager._accountDelta(Currency,int128)</text><text x="707.6" y="288.4" class="terminal-1823446969-r1" clip-path="url(#terminal-1823446969-line-11)" textLength="12.2">:</text><text x="0" y="312.8" class="terminal-1823446969-r1" clip-path="url(#terminal-1823446969-line-12)" textLength="73.2">-</text><text x="73.2" y="312.8" class="terminal-1823446969-r2" clip-path="url(#terminal-1823446969-line-12)" textLength="219.6">MODIFIES STATE VAR</text><text x="73.2" y="337.2" class="terminal-1823446969-r3" clip-path="url(#terminal-1823446969-line-13)" textLength="97.6">lockData</text><text x="170.8" y="337.2" class="terminal-1823446969-r3" clip-path="url(#terminal-1823446969-line-13)" textLength="12.2">.</text><text x="183" y="337.2" class="terminal-1823446969-r3" clip-path="url(#terminal-1823446969-line-13)" textLength="207.4">nonzeroDeltaCount</text><text x="390.4" y="337.2" class="terminal-1823446969-r4" clip-path="url(#terminal-1823446969-line-13)" textLength="12.2">-</text><text x="402.6" y="337.2" class="terminal-1823446969-r4" clip-path="url(#terminal-1823446969-line-13)" textLength="12.2">-</text><text x="0" y="361.6" class="terminal-1823446969-r1" clip-path="url(#terminal-1823446969-line-14)" textLength="73.2">-</text><text x="73.2" y="361.6" class="terminal-1823446969-r2" clip-path="url(#terminal-1823446969-line-14)" textLength="219.6">MODIFIES STATE VAR</text><text x="73.2" y="386" class="terminal-1823446969-r3" clip-path="url(#terminal-1823446969-line-15)" textLength="97.6">lockData</text><text x="170.8" y="386" class="terminal-1823446969-r3" clip-path="url(#terminal-1823446969-line-15)" textLength="12.2">.</text><text x="183" y="386" class="terminal-1823446969-r3" clip-path="url(#terminal-1823446969-line-15)" textLength="207.4">nonzeroDeltaCount</text><text x="390.4" y="386" class="terminal-1823446969-r4" clip-path="url(#terminal-1823446969-line-15)" textLength="12.2">+</text><text x="402.6" y="386" class="terminal-1823446969-r4" clip-path="url(#terminal-1823446969-line-15)" textLength="12.2">+</text><text x="0" y="410.4" class="terminal-1823446969-r1" clip-path="url(#terminal-1823446969-line-16)" textLength="73.2">-</text><text x="73.2" y="410.4" class="terminal-1823446969-r2" clip-path="url(#terminal-1823446969-line-16)" textLength="219.6">MODIFIES STATE VAR</text><text x="73.2" y="434.8" class="terminal-1823446969-r3" clip-path="url(#terminal-1823446969-line-17)" textLength="158.6">currencyDelta</text><text x="231.8" y="434.8" class="terminal-1823446969-r3" clip-path="url(#terminal-1823446969-line-17)" textLength="12.2">[</text><text x="244" y="434.8" class="terminal-1823446969-r3" clip-path="url(#terminal-1823446969-line-17)" textLength="73.2">locker</text><text x="317.2" y="434.8" class="terminal-1823446969-r3" clip-path="url(#terminal-1823446969-line-17)" textLength="12.2">]</text><text x="329.4" y="434.8" class="terminal-1823446969-r3" clip-path="url(#terminal-1823446969-line-17)" textLength="12.2">[</text><text x="341.6" y="434.8" class="terminal-1823446969-r3" clip-path="url(#terminal-1823446969-line-17)" textLength="97.6">currency</text><text x="439.2" y="434.8" class="terminal-1823446969-r3" clip-path="url(#terminal-1823446969-line-17)" textLength="12.2">]</text><text x="463.6" y="434.8" class="terminal-1823446969-r4" clip-path="url(#terminal-1823446969-line-17)" textLength="12.2">=</text><text x="488" y="434.8" class="terminal-1823446969-r3" clip-path="url(#terminal-1823446969-line-17)" textLength="48.8">next</text></g></g></svg>